# xmcd CD database file
#
# Track frame offsets:
#	150
#	15665
#	32976
#	55293
#	79118
#	106126
#	127476
#	141325
#	155381
#	183446
#	199629
#	221225
#
# Disc length: 3211 seconds
#
# Revision: 0
# Processed by: cddbd v1.5.2PL0 Copyright (c) Steve Scherf et al.
# Submitted via: CDex 1.51
#
DISCID=b00c890c
DTITLE=Escalandrum and Elena Roger - 3001
DYEAR=2016
DGENRE=Jazz
TTITLE0=Los Pajaros Perdidos
TTITLE1=Chiquilin De Bachin
TTITLE2=Balada Para un Loco
TTITLE3=Oblivion
TTITLE4=La Bicicleta Blanca
TTITLE5=Vuelvo Al Sur
TTITLE6=Poema Valseado
TTITLE7=Melonga De La Anunviacion
TTITLE8=Los Paraguas De Buenos Aires
TTITLE9=La Murella De China
TTITLE10=Balada para mi Muerte
TTITLE11=Preludio Para el Ano 3001
EXTD=YEAR: 2016
EXTT0=
EXTT1=
EXTT2=
EXTT3=
EXTT4=
EXTT5=
EXTT6=
EXTT7=
EXTT8=
EXTT9=
EXTT10=
EXTT11=
PLAYORDER=
